<?xml version="1.0" standalone="no"?><!DOCTYPE svg PUBLIC "-//W3C//DTD SVG 1.1//EN" "http://www.w3.org/Graphics/SVG/1.1/DTD/svg11.dtd"><svg t="1572180561444" class="icon" viewBox="0 0 1092 1024" version="1.1" xmlns="http://www.w3.org/2000/svg" p-id="2457" xmlns:xlink="http://www.w3.org/1999/xlink" width="34.125" height="32"><defs><style type="text/css"></style></defs><path d="M335.133145 511.01748" p-id="2458"></path><path d="M1091.861096 274.782261l-755.005178 0-85.65411-274.782261-220.084225 0c-17.146973 0-31.117584 13.943692-31.117584 31.063747 0 17.146973 13.970611 31.090665 31.117584 31.090665l174.107726 0 71.279724 212.627849-1.049815 0 67.995689 408.431744c0.053837 74.509923 60.27013 134.699298 134.268605 134.699298l377.852527 0c73.971557 0 134.160931-60.189375 134.160931-134.160931L1091.861096 274.782261zM927.417049 684.533003c0.107673 38.870061-32.167398 71.118214-71.845009 71.118214l-377.852527 0c-39.677611 0-71.979601-32.248153-71.979601-71.898846l-57.84748-346.734943 666.336215 0L927.417049 684.533003z" p-id="2459"></path><path d="M821.197339 958.534632m-65.465366 0a2.432 2.432 0 1 0 130.930732 0 2.432 2.432 0 1 0-130.930732 0Z" p-id="2460"></path><path d="M477.719512 893.069266c-36.124392 0-65.492285 29.367892-65.492285 65.492285 0 36.097474 29.367892 65.438448 65.492285 65.438448 36.097474 0 65.438448-29.340974 65.438448-65.438448C543.15796 922.437159 513.790068 893.069266 477.719512 893.069266z" p-id="2461"></path></svg>